<?xml version="1.0" standalone="no"?>
<!DOCTYPE svg PUBLIC "-//W3C//DTD SVG 20010904//EN"
 "http://www.w3.org/TR/2001/REC-SVG-20010904/DTD/svg10.dtd">
<svg version="1.0" xmlns="http://www.w3.org/2000/svg"
 width="120.000000pt" height="120.000000pt" viewBox="0 0 120.000000 120.000000"
 preserveAspectRatio="xMidYMid meet">
<metadata>
Created by potrace 1.11, written by Peter Selinger 2001-2013
</metadata>
<g transform="translate(0.000000,120.000000) scale(0.100000,-0.100000)"
fill="#000000" stroke="none">
<path d="M538 985 c-7 -9 -19 -22 -26 -30 -7 -8 -11 -15 -7 -15 4 0 0 -6 -7
-14 -31 -33 -46 -55 -41 -60 4 -3 1 -6 -5 -6 -7 0 -12 -7 -12 -16 0 -8 -4 -12
-10 -9 -5 3 -10 0 -10 -8 0 -8 -7 -20 -15 -27 -9 -7 -14 -15 -11 -17 3 -4 -19
-33 -56 -74 -10 -10 -15 -19 -12 -19 3 0 -9 -18 -26 -40 -17 -22 -29 -40 -26
-40 3 0 -3 -9 -14 -20 -11 -11 -20 -25 -20 -31 0 -5 -4 -7 -10 -4 -5 3 -10 -2
-10 -12 0 -10 -9 -25 -19 -33 -11 -7 -18 -17 -16 -20 3 -4 -4 -15 -15 -25 -11
-10 -20 -24 -20 -32 0 -7 -7 -13 -16 -13 -8 0 -12 -4 -9 -10 3 -5 -5 -21 -18
-34 -14 -14 -22 -27 -19 -30 3 -3 0 -6 -7 -6 -7 0 -10 -4 -7 -9 3 -5 -1 -12
-10 -15 -8 -3 -13 -10 -10 -15 3 -5 -1 -12 -10 -15 -8 -3 -12 -10 -9 -16 3 -5
0 -10 -8 -10 -14 0 -27 -20 -27 -40 0 -5 92 -9 204 -10 l204 -1 -5 22 c-4 15
-3 20 5 15 7 -4 12 -1 12 9 0 9 6 23 14 30 22 22 87 56 96 50 4 -3 11 1 13 7
4 10 6 10 6 1 1 -7 7 -10 15 -7 8 3 25 0 38 -7 13 -7 26 -13 29 -14 9 0 39
-33 39 -43 0 -6 7 -12 15 -16 8 -3 15 -9 14 -13 -5 -32 2 -33 200 -33 172 0
199 2 197 15 -1 8 -8 21 -14 27 -7 7 -12 18 -12 25 0 7 -3 13 -7 13 -5 0 -19
17 -33 38 -14 20 -29 42 -35 49 -5 7 -15 19 -22 27 -6 7 -9 17 -6 20 4 3 1 6
-5 6 -7 0 -12 7 -12 16 0 8 -4 13 -8 10 -4 -2 -18 15 -31 40 -13 24 -28 44
-32 44 -5 0 -9 6 -9 14 0 7 -10 21 -22 30 -13 9 -16 14 -8 10 9 -4 7 1 -5 14
-32 34 -46 52 -40 52 3 0 -6 12 -20 27 -14 15 -25 33 -25 40 0 7 -4 13 -10 13
-5 0 -10 6 -10 13 0 7 -9 20 -20 30 -11 9 -20 24 -20 32 0 9 -4 13 -10 10 -9
-5 -15 9 -7 18 1 2 -11 15 -27 30 -16 15 -26 27 -22 27 4 0 1 6 -6 14 -7 8
-16 12 -21 9 -4 -2 -6 -1 -5 4 3 11 -25 73 -34 73 -4 0 -13 -7 -20 -15z"/>
</g>
</svg>
