<svg width="307" height="40" viewBox="165 9 307 40" xmlns="http://www.w3.org/2000/svg"><g fill="none" fill-rule="evenodd"><path d="M252.531 33.111l-3.963-8.684h-.12l-3.884 8.684h7.967zm-17.123 8.407l12.327-26.565c.12-.236.317-.434.674-.434h.396c.397 0 .555.198.674.434l12.208 26.565c.238.514-.08 1.027-.674 1.027h-3.448c-.595 0-.872-.236-1.15-.79l-1.942-4.262h-11.85l-1.943 4.263c-.159.395-.516.79-1.15.79h-3.448c-.595 0-.912-.514-.674-1.028zm29.093-25.854c0-.395.357-.75.753-.75h3.766a.75.75 0 0 1 .753.75v16.145c0 3.355 2.299 6 5.747 6 3.449 0 5.787-2.645 5.787-5.961V15.664a.75.75 0 0 1 .753-.75h3.766c.396 0 .753.355.753.75v16.42c0 6-4.796 10.856-11.059 10.856-6.223 0-11.019-4.855-11.019-10.855V15.664m41.143-1.144c3.567 0 6.976 1.38 9.67 3.67.318.316.358.79.04 1.105l-2.457 2.566c-.317.316-.673.316-1.03 0-1.705-1.5-3.806-2.29-5.986-2.29-4.954 0-8.878 4.224-8.878 9.159 0 4.894 3.924 9.039 8.918 9.039 2.22 0 3.924-.671 4.717-.987v-3.355h-3.171c-.436 0-.753-.316-.753-.71v-3.12c0-.433.317-.749.753-.749h7.61c.397 0 .714.355.714.75v10.105a.759.759 0 0 1-.317.632s-4.083 2.566-9.83 2.566c-7.888 0-14.23-6.238-14.23-14.132 0-7.894 6.342-14.25 14.23-14.25m15.576 1.145c0-.395.357-.75.753-.75h3.766a.75.75 0 0 1 .753.75v16.145c0 3.355 2.298 6 5.748 6 3.448 0 5.786-2.645 5.786-5.961V15.664c0-.395.318-.75.753-.75h3.766c.396 0 .753.355.753.75v16.42c0 6-4.796 10.856-11.058 10.856-6.224 0-11.02-4.855-11.02-10.855V15.664m27.27 23.013l1.427-2.447c.316-.553.99-.553 1.347-.277.198.119 3.409 2.448 5.986 2.448 2.06 0 3.606-1.343 3.606-3.04 0-2.013-1.704-3.394-5.034-4.737-3.725-1.5-7.45-3.868-7.45-8.526 0-3.513 2.615-7.579 8.918-7.579 4.042 0 7.134 2.053 7.926 2.645.397.237.515.908.238 1.303l-1.505 2.25c-.318.473-.913.789-1.389.473-.315-.197-3.328-2.17-5.508-2.17-2.26 0-3.488 1.499-3.488 2.762 0 1.856 1.466 3.118 4.677 4.421 3.844 1.54 8.283 3.829 8.283 8.921 0 4.066-3.528 7.816-9.116 7.816-4.995 0-7.928-2.329-8.72-3.08-.357-.354-.555-.551-.199-1.183m26.834-19.027h-6.064a.75.75 0 0 1-.753-.75v-3.236a.75.75 0 0 1 .753-.75h17.322a.75.75 0 0 1 .752.75V18.9a.75.75 0 0 1-.752.75h-6.065v22.144c0 .395-.358.75-.754.75h-3.686a.779.779 0 0 1-.753-.75V19.651m38.407 13.46l-3.963-8.684h-.12l-3.884 8.684h7.968zm-17.123 8.407l12.327-26.565c.12-.236.318-.434.673-.434h.398c.396 0 .555.198.673.434l12.21 26.565c.235.514-.08 1.027-.676 1.027h-3.448c-.594 0-.871-.236-1.15-.79l-1.941-4.262H403.82l-1.942 4.263c-.158.395-.515.79-1.15.79h-3.447c-.595 0-.913-.514-.675-1.028zm28.261-2.841l1.426-2.447c.318-.553.991-.553 1.349-.277.197.119 3.408 2.448 5.985 2.448 2.06 0 3.606-1.343 3.606-3.04 0-2.013-1.704-3.394-5.032-4.737-3.726-1.5-7.453-3.868-7.453-8.526 0-3.513 2.616-7.579 8.917-7.579 4.044 0 7.137 2.053 7.928 2.645.397.237.515.908.238 1.303l-1.507 2.25c-.316.473-.91.789-1.386.473-.316-.197-3.329-2.17-5.51-2.17-2.26 0-3.487 1.499-3.487 2.762 0 1.856 1.466 3.118 4.677 4.421 3.844 1.54 8.284 3.829 8.284 8.921 0 4.066-3.529 7.816-9.117 7.816-4.995 0-7.928-2.329-8.72-3.08-.356-.354-.554-.551-.198-1.183m23.107-23.013c0-.395.358-.75.754-.75h3.686c.435 0 .753.355.753.75v10.46h12.922v-10.46a.75.75 0 0 1 .753-.75h3.647c.395 0 .753.355.753.75v26.131c0 .395-.358.75-.753.75h-3.647a.75.75 0 0 1-.753-.75V30.9h-12.922v10.895c0 .395-.318.75-.753.75h-3.686a.779.779 0 0 1-.754-.75V15.664" fill="#FFF"/><path d="M192.552 41.925c3.735 0 6.858 2.53 7.654 6.077h19.886L192.546 9.078 165 48.002h19.9c.794-3.548 3.918-6.077 7.652-6.077" fill="#41B1D3"/><path d="M220.092 45.887h-19.886l-.01-.079h19.852v-.03l.044.109M184.9 48.002H165l27.546-38.924.007.009v32.838c-3.735 0-6.859 2.53-7.654 6.077" fill="#42B1D3"/><path d="M220.048 47.957h-19.853c-.811-3.524-3.924-6.031-7.642-6.032V9.087l27.495 38.853v.017" fill="#288FB0"/></g></svg>